<?xml version="1.0" encoding="UTF-8" standalone="no"?>
<svg
   xmlns:dc="http://purl.org/dc/elements/1.1/"
   xmlns:cc="http://creativecommons.org/ns#"
   xmlns:rdf="http://www.w3.org/1999/02/22-rdf-syntax-ns#"
   xmlns:svg="http://www.w3.org/2000/svg"
   xmlns="http://www.w3.org/2000/svg"
   viewBox="0 0 2645.6667 226.772"
   height="226.772"
   width="2645.6667"
   xml:space="preserve"
   id="svg2"
   version="1.1"><metadata
     id="metadata8"><rdf:RDF><cc:Work
         rdf:about=""><dc:format>image/svg+xml</dc:format><dc:type
           rdf:resource="http://purl.org/dc/dcmitype/StillImage" /></cc:Work></rdf:RDF></metadata><defs
     id="defs6"><clipPath
       id="clipPath18"
       clipPathUnits="userSpaceOnUse"><path
         id="path16"
         d="M 0,170.079 H 1984.252 V 0 H 0 Z" /></clipPath></defs><g
     transform="matrix(1.3333333,0,0,-1.3333333,0,226.772)"
     id="g10"><g
       id="g12"><g
         clip-path="url(#clipPath18)"
         id="g14"><g
           transform="translate(698.0659,64.2375)"
           id="g20"><path
             id="path22"
             style="fill:#ffffff;fill-opacity:1;fill-rule:nonzero;stroke:none"
             d="m 0,0 23.93,-23.93 h 2.799 v 11.328 L 0,14.127 Z m 338.144,51.861 c -4.04,2.003 -8.983,3.027 -14.873,3.027 -0.748,0 -1.48,-0.03 -2.206,-0.075 l 29.482,-29.482 v 1.12 c 0,6.503 -1.008,11.837 -3.01,16.017 z m -27.929,0.225 c -1.387,-0.67 -2.68,-1.445 -3.886,-2.319 L 350.547,5.549 v 14.126 l -34.444,34.444 c -2.071,-0.466 -4.036,-1.14 -5.888,-2.033 M 451.992,14.42 V 12.3 C 451.913,9.077 451.553,6.347 450.93,4.081 l 25.74,-25.74 v 14.126 l -24.751,24.751 c 0.044,-0.901 0.073,-1.825 0.073,-2.798 m -2.837,-14.527 c -1.755,-2.712 -4.774,-4.067 -9.057,-4.067 -0.252,0 -0.493,0.025 -0.738,0.042 l 10.237,-10.237 c 0.044,0.073 0.096,0.141 0.139,0.214 h 1.026 l 1.964,-3.343 6.432,-6.432 h 14.126 L 449.267,0.088 c -0.039,-0.062 -0.072,-0.134 -0.112,-0.195 m -47.407,14.8 c 0,-0.342 0.009,-0.672 0.013,-1.009 l 37.231,-37.232 c 2.369,0.974 4.423,2.228 6.13,3.788 0.745,0.68 1.426,1.398 2.071,2.138 L 402.651,26.92 c -0.597,-3.716 -0.903,-7.785 -0.903,-12.227 m 28.438,40.195 c -3.164,0 -6.107,-0.484 -8.829,-1.451 l 20.159,-20.158 c 3.779,-0.357 6.418,-1.961 7.913,-4.812 0.705,-1.343 1.256,-2.943 1.67,-4.772 L 476.67,-1.876 v 14.127 l -42.346,42.346 c -1.299,0.181 -2.666,0.291 -4.138,0.291 M 258.843,49.556 c -2.165,-1.64 -3.931,-3.509 -5.298,-5.605 h -0.75 l 10.644,-10.644 c 1.119,0.391 2.374,0.595 3.778,0.595 2.005,0 3.668,-0.536 4.99,-1.606 1.321,-1.072 2.313,-2.758 2.974,-5.059 0.509,-1.775 0.82,-3.981 0.937,-6.609 L 302.969,-6.223 V 7.904 L 260.31,50.563 c -0.505,-0.322 -1,-0.653 -1.467,-1.007 m 7.724,3.897 c -0.886,-0.284 -1.724,-0.608 -2.538,-0.953 L 302.99,13.539 c 0.085,5.042 0.639,9.197 1.663,12.465 L 275.8,54.857 c -3.422,-0.078 -6.512,-0.532 -9.233,-1.404 m 34.146,-9.365 h -0.82 c -2.325,3.372 -5.332,6.015 -9.024,7.929 -2.567,1.331 -5.631,2.189 -9.168,2.594 L 306.4,29.913 c 1.756,2.646 4.431,3.989 8.053,3.989 0.839,0 1.617,-0.092 2.344,-0.261 l -13.506,13.507 c -0.929,-0.942 -1.793,-1.956 -2.578,-3.06 m 23.105,-25.909 v -5.685 l 26.729,-26.728 v 14.126 l -27.851,27.851 c 0.742,-2.351 1.122,-5.524 1.122,-9.564 m 0,-25.468 16.641,-16.641 h 10.088 v 4.039 L 323.818,6.838 Z m 0,-16.641 h 10.985 l -10.985,10.984 z M 449.736,64.623 476.67,37.69 V 51.816 L 449.736,78.75 Z M 561.504,-7.578 v 7.164 c -1.703,-0.798 -3.381,-1.488 -5.044,-2.12 z m -28.477,62.387 c -0.994,0.049 -2.004,0.079 -3.037,0.079 -3.607,0 -6.996,-0.336 -10.183,-0.986 L 566.125,7.584 h 0.437 v 11.894 c 0,0.626 -0.025,1.23 -0.044,1.84 z m -82.881,-3.168 c 0.274,-3.44 0.57,-6.14 0.889,-8.099 L 476.67,17.907 v 14.127 l -26.876,26.875 c 0.056,-2.386 0.156,-4.799 0.352,-7.268 M 581.67,11.822 608.398,-14.906 V -0.78 L 581.67,25.949 Z m -32.642,-16.68 c -2.732,-0.648 -5.662,-1.058 -8.76,-1.267 l 15.856,-15.856 c 1.862,0.679 3.662,1.457 5.38,2.358 v 6.389 l -9.251,9.25 c -1.083,-0.326 -2.159,-0.621 -3.225,-0.874 m 32.642,-3.103 15.969,-15.969 h 10.759 v 3.367 L 581.67,6.166 Z m 0,-15.969 h 10.312 L 581.67,-13.617 Z M 451.706,82.437 476.67,57.473 V 71.6 L 465.832,82.437 Z M 276.172,0.791 300.893,-23.93 h 2.076 v 12.051 L 276.172,14.918 Z M 476.67,77.256 v 5.181 h -5.181 z m 15.107,-62.973 c 0,-4.762 0.488,-9.063 1.443,-12.926 l 24.775,-24.775 c 4.477,-1.243 9.313,-1.879 14.525,-1.879 0.5,0 0.981,0.008 1.468,0.013 L 491.834,16.87 c -0.029,-0.853 -0.057,-1.705 -0.057,-2.587 m 31.548,-16.68 c -2.803,2.598 -4.318,5.924 -4.546,9.981 h 2.123 l -25.981,25.981 c -1.315,-3.379 -2.216,-7.187 -2.701,-11.426 l 47.252,-47.251 c 3.729,0.212 6.997,0.605 9.796,1.182 0.862,0.178 1.701,0.393 2.538,0.61 l -17.057,17.057 c -4.976,0.151 -8.794,1.429 -11.424,3.866 m -26.25,-5.81 c 2.875,-4.75 6.634,-8.469 11.247,-11.194 l -11.311,11.31 c 0.023,-0.037 0.041,-0.079 0.064,-0.116 M 228.73,53.521 v -5.288 l 27.395,-27.395 c 0.108,0.759 0.225,1.497 0.359,2.195 0.677,3.516 1.856,6.193 3.536,8.037 L 237.569,53.521 Z M 88.97,-0.107 c -1.294,-1.999 -3.281,-3.256 -5.95,-3.781 l 20.043,-20.042 h 13.421 v 0.705 L 90.374,2.885 C 89.982,1.753 89.521,0.745 88.97,-0.107 M 91.807,14.42 V 12.3 C 91.764,10.55 91.631,8.957 91.427,7.488 l 25.057,-25.057 V -3.442 L 91.281,21.761 c 0.344,-2.166 0.526,-4.602 0.526,-7.341 M 78.955,53.384 c -2.507,1.002 -5.492,1.504 -8.955,1.504 -1.961,0 -3.834,-0.193 -5.625,-0.564 L 116.484,2.214 V 16.341 L 79.838,52.987 c -0.295,0.132 -0.579,0.276 -0.883,0.397 M 95.611,82.437 116.484,61.564 V 75.69 l -6.746,6.747 z m -6.06,0 V 68.714 L 116.484,41.78 v 14.127 l -26.53,26.53 z m 0,-20.713 c 0,-3.281 0.137,-6.642 0.41,-10.083 0.098,-1.239 0.2,-2.378 0.304,-3.424 l 26.219,-26.22 V 36.124 L 89.551,63.058 Z m 6.767,-85.654 h 1.088 l -2.637,2.637 z m 20.166,105.277 v 1.09 h -1.09 z M -1.171,54.864 c -3.341,-0.06 -6.4,-0.497 -9.151,-1.343 -0.921,-0.283 -1.796,-0.62 -2.65,-0.982 L 26.729,12.838 v 13.613 c 0,0.177 -0.007,0.347 -0.009,0.522 z m -17.013,-5.308 c -2.171,-1.65 -4.043,-3.641 -5.635,-5.953 l 10.302,-10.302 c 1.235,0.385 2.606,0.601 4.152,0.601 3.281,0 5.662,-1.311 7.143,-3.931 1.333,-2.359 2.061,-5.752 2.194,-10.16 L 26.729,-6.945 V 7.182 l -43.41,43.41 c -0.514,-0.33 -1.02,-0.669 -1.503,-1.036 m 71.956,-69.418 -3.401,3.401 c 1.076,-1.273 2.211,-2.403 3.401,-3.401 M 71.743,0.235 C 71.115,1.106 70.592,2.149 70.15,3.326 L 43.12,30.357 c -0.854,-3.78 -1.352,-7.991 -1.503,-12.624 l 39.94,-39.94 c 1.238,0.717 2.372,1.526 3.38,2.447 1.489,1.36 2.767,2.845 3.856,4.443 L 77.305,-3.828 c -2.17,0.586 -4.026,1.933 -5.562,4.063 M 44.029,-4.462 64.472,-24.906 c 1.448,-0.258 2.947,-0.391 4.503,-0.391 3.308,0 6.194,0.453 8.694,1.322 L 41.6,12.093 C 41.772,5.797 42.581,0.277 44.029,-4.462 M 228.73,8.667 255.459,-18.062 V -3.936 L 228.73,22.793 Z m 0,-19.784 12.814,-12.813 h 13.915 v 0.211 L 228.73,3.01 Z m 0,-12.813 h 7.158 l -7.158,7.157 z m 0,52.379 26.729,-26.728 v 8.255 c 0,2.029 0.055,3.929 0.161,5.71 l -26.89,26.89 z m -90.336,-41.578 c 2.392,-4.194 5.627,-7.27 9.707,-9.229 3.004,-1.443 6.276,-2.35 9.813,-2.731 l -22.805,22.805 c 0.488,-4.228 1.575,-7.85 3.285,-10.845 m 137.778,-5.863 4.938,-4.938 h 14.126 l -19.064,19.064 z m -65.899,65.898 v 6.615 h -6.615 z M 581.67,31.606 608.398,4.877 V 19.004 L 581.67,45.732 Z M 170.762,-4.174 c -3.282,0 -5.64,1.309 -7.075,3.931 -1.401,2.556 -2.113,6.26 -2.147,11.095 L 134.805,37.587 V 23.46 l 44.171,-44.171 c 0.052,0.034 0.108,0.062 0.16,0.096 2.437,1.618 4.454,3.726 6.05,6.324 h 1.497 l -10.985,10.984 c -1.409,-0.571 -3.049,-0.867 -4.936,-0.867 m -35.957,7.851 28.917,-28.917 c 2.509,0.121 4.949,0.471 7.313,1.071 1.492,0.378 2.917,0.868 4.276,1.467 l -40.506,40.506 z m 55.302,-27.607 h 6.214 l -9.523,9.523 z m -6.562,43.545 c 0,-1.83 -0.049,-3.556 -0.143,-5.186 l 26.871,-26.871 V 1.684 L 183.545,28.413 Z M 182.451,6.627 c -0.67,-3.268 -1.818,-5.795 -3.431,-7.598 l 22.958,-22.959 h 8.295 v 5.831 l -27.369,27.37 c -0.132,-0.923 -0.281,-1.807 -0.453,-2.644 m 1.094,27.442 26.728,-26.728 v 14.126 l -26.728,26.728 z m 0.331,19.452 26.397,-26.397 V 41.25 l -12.271,12.271 z m 223.256,-64.992 11.424,-11.423 c 3.204,-1.598 6.736,-2.403 10.604,-2.403 1.964,0 3.771,0.169 5.45,0.475 L 402.012,7.776 c 0.618,-7.746 2.328,-14.157 5.12,-19.247 m 664.606,0.256 c -3.967,3.34 -9.792,5.131 -17.432,5.411 l 23.86,-23.859 c 0.041,0.648 0.066,1.304 0.066,1.973 0,7.337 -2.165,12.828 -6.494,16.475 m -32.402,5.469 c -1.641,0 -3.361,0.113 -5.161,0.341 -0.021,0.003 -0.04,0.007 -0.06,0.01 l 38.575,-38.575 c 2.284,2.763 3.862,5.894 4.732,9.394 l -28.829,28.83 z m 15.654,-26.455 c 0,-2.096 -1.117,-3.783 -3.349,-5.059 -1.128,-0.644 -2.39,-1.196 -3.784,-1.661 l 13.449,-13.449 c 1.734,0.798 3.355,1.687 4.861,2.669 1.366,0.89 2.607,1.845 3.741,2.857 l -14.933,14.933 c 0.01,-0.097 0.015,-0.191 0.015,-0.29 m 35.684,9.813 1.542,-1.542 h 14.126 l -15.668,15.668 z m -11.758,71.106 v 4.803 h -4.803 z m -24.586,4.803 16.057,-16.056 8.529,3.136 v 2.461 l -10.459,10.459 z M 987.383,41.337 V 53.521 H 975.198 Z M 960.654,28.499 987.383,1.77 v 14.127 l -26.729,26.729 z m 0,-8.884 c 0,-3.869 -0.211,-7.291 -0.629,-10.27 l 27.358,-27.358 v 14.127 l -26.729,26.729 z m 0,33.906 v -5.239 l 26.729,-26.728 v 14.127 l -17.841,17.84 z m 41.631,-78.34 c -1.392,-1.458 -2.439,-3.107 -3.156,-4.94 l 27.631,-27.632 c 1.77,-0.112 3.611,-0.172 5.535,-0.172 2.948,0 5.755,0.114 8.436,0.329 l -35.113,35.113 c -1.262,-0.81 -2.384,-1.703 -3.333,-2.698 m 31.309,-16.064 c -1.364,0 -2.627,0.085 -3.802,0.245 l 16.031,-16.032 c 4.186,0.595 8.001,1.489 11.441,2.686 l -13.947,13.947 c -3.264,-0.563 -6.505,-0.846 -9.723,-0.846 m 57.08,38.277 21.324,-21.324 h 5.404 v 8.723 l -26.728,26.728 z m 129.199,-2.867 c -2.78,0 -5.024,0.786 -6.733,2.358 -1.709,1.573 -2.952,3.873 -3.726,6.905 -0.632,2.471 -1.002,5.412 -1.118,8.808 l -23.022,23.022 c -1.555,-3.221 -2.675,-6.81 -3.355,-10.772 l 48.951,-48.951 c 1.708,0.388 3.356,0.86 4.931,1.438 1.878,0.688 3.643,1.509 5.304,2.454 l -16.02,16.02 c -1.43,-0.852 -3.165,-1.282 -5.212,-1.282 m -38.76,20.439 c 0,-3.538 0.293,-6.851 0.859,-9.954 l 29.665,-29.665 c 2.541,-0.428 5.194,-0.644 7.963,-0.644 2.233,0 4.38,0.122 6.444,0.364 l -44.735,44.735 c -0.119,-1.567 -0.196,-3.168 -0.196,-4.836 M 955.698,-1.44 c -0.797,-0.788 -1.746,-1.394 -2.829,-1.842 l 20.648,-20.648 h 13.866 v 0.261 L 959.062,4.651 C 958.3,2.064 957.183,0.026 955.698,-1.44 m 302.269,23.716 -32.286,32.286 c -1.835,0.213 -3.723,0.326 -5.671,0.326 -2.873,0 -5.596,-0.206 -8.183,-0.599 l 46.232,-46.232 c 0.245,2.203 0.369,4.505 0.369,6.909 0,2.56 -0.166,4.987 -0.461,7.31 m -65.985,-37.183 c 3.383,-3.338 7.346,-5.877 11.881,-7.628 l -19.666,19.666 c 1.874,-4.743 4.465,-8.761 7.785,-12.038 m 7.212,65.147 c -0.673,-0.359 -1.324,-0.742 -1.962,-1.139 l 16.148,-16.148 c 1.666,1.358 3.782,2.043 6.356,2.043 2.826,0 5.07,-0.752 6.734,-2.256 1.663,-1.504 2.871,-3.737 3.623,-6.699 0.743,-2.93 1.118,-6.574 1.126,-10.927 l 22.364,-22.365 c 0.823,1.567 1.553,3.227 2.179,4.991 0.612,1.726 1.111,3.546 1.512,5.445 l -50.128,50.128 c -2.846,-0.755 -5.505,-1.768 -7.952,-3.073 m 30.899,-46.45 c -0.513,-2.066 -1.236,-3.783 -2.161,-5.171 l 16.585,-16.585 c 1.245,0.935 2.424,1.949 3.52,3.059 1.249,1.267 2.388,2.643 3.418,4.128 l -20.446,20.447 c -0.185,-2.184 -0.487,-4.148 -0.916,-5.878 m -90.542,-27.72 h 6.357 l -6.357,6.357 z m -48.877,41.107 26.728,-26.728 V 4.576 l -26.728,26.728 z m 24.814,26.09 h -1.025 l -2.084,5.899 -4.356,4.355 h -14.127 l 26.023,-26.022 c 0.028,0.069 0.052,0.148 0.081,0.217 1.446,3.443 4.068,5.427 7.832,5.996 l -11.171,11.171 c -0.405,-0.521 -0.8,-1.056 -1.173,-1.616 m -24.814,-6.306 26.732,-26.733 c 0.013,5.109 0.417,9.409 1.2,12.927 l -27.932,27.933 z m 30.693,12.595 c -0.702,-0.534 -1.363,-1.114 -2.005,-1.717 l 14.791,-14.792 c 1.316,-0.651 2.38,-1.668 3.176,-3.076 0.036,-0.062 0.065,-0.135 0.099,-0.199 l 28.851,-28.85 v 14.127 l -38.102,38.102 c -2.528,-0.889 -4.809,-2.074 -6.81,-3.595 m 25.727,4.461 c -2.47,0.572 -5.115,0.871 -7.953,0.871 -2.302,0 -4.451,-0.203 -6.479,-0.566 l 33.617,-33.617 v 5.746 c 0,3.419 -0.307,6.51 -0.906,9.287 z m -7.543,-35.701 V 7.867 l 26.728,-26.729 v 14.127 l -26.89,26.891 c 0.105,-1.193 0.162,-2.468 0.162,-3.84 m 0,-30.232 12.013,-12.014 h 14.127 l -26.14,26.141 z M 870.112,63.467 c 2.757,-1.618 6.095,-2.426 10.015,-2.426 0.903,0 1.776,0.048 2.625,0.138 l -16.211,16.212 c -0.374,-1.319 -0.564,-2.847 -0.564,-4.592 0,-4.604 1.377,-7.714 4.135,-9.332 M 713.835,-1.645 730.762,-18.571 v 14.126 l -2.8,2.8 z m 59.993,-34.59 c 0,-2.464 0.388,-4.718 1.151,-6.77 l 10.536,-10.537 c 4.741,-2.224 10.751,-3.524 18.028,-3.901 l -28.297,28.297 c -0.934,-2.106 -1.418,-4.463 -1.418,-7.089 m 26.113,-2.632 c -2.37,1.345 -3.554,3.111 -3.554,5.298 0,0.878 0.219,1.689 0.621,2.445 l -11.192,11.192 c -3.195,-1.257 -5.765,-2.879 -7.681,-4.887 -0.258,-0.269 -0.49,-0.553 -0.724,-0.835 l 31.895,-31.896 c 4.73,0.047 9.11,0.377 13.135,0.992 l -15.799,15.799 c -2.684,0.251 -4.919,0.882 -6.701,1.892 M 694.052,-1.645 716.337,-23.93 h 14.127 l -22.285,22.285 z m 125.167,-38.384 c -2.305,-0.4 -4.598,-0.651 -6.88,-0.77 l 14.865,-14.865 c 3.899,0.884 7.411,2.081 10.543,3.583 l -13.402,13.402 c -1.542,-0.562 -3.237,-1.021 -5.126,-1.35 m -9.195,34.624 c -1.8,0.228 -3.327,0.65 -4.58,1.265 -1.254,0.615 -1.88,1.446 -1.88,2.495 0,0.501 0.08,1.036 0.24,1.607 0.111,0.399 0.277,0.806 0.467,1.216 l -24.603,24.603 c 0.308,-4.343 1.418,-8.112 3.354,-11.293 2.301,-3.783 5.457,-6.563 9.468,-8.34 -1.702,-1.036 -3.155,-2.011 -4.384,-2.931 l 29.838,-29.838 c 2.011,-0.03 3.95,-0.146 5.786,-0.385 2.096,-0.274 3.805,-0.809 5.127,-1.607 1.322,-0.796 1.983,-1.993 1.983,-3.588 0,-1.873 -0.899,-3.416 -2.681,-4.635 l 13.243,-13.244 c 0.204,0.127 0.415,0.248 0.615,0.379 2.792,1.819 5.088,3.897 6.911,6.222 l -37.985,37.985 c -0.308,0.033 -0.606,0.05 -0.919,0.089 m -10.167,-22.912 c 0.499,0.293 1.029,0.566 1.622,0.798 1.573,0.615 3.316,0.923 5.23,0.923 h 5.553 L 785.084,0.582 c -0.329,-0.353 -0.628,-0.7 -0.865,-1.031 -1.323,-1.845 -1.983,-3.976 -1.983,-6.391 0,-2.01 0.75,-4.039 2.231,-6.087 l 3.898,-3.898 c 0.848,-0.596 1.743,-1.099 2.69,-1.5 -0.326,-0.075 -0.631,-0.162 -0.948,-0.243 z M 581.67,82.437 V 71.172 L 608.398,44.443 V 58.57 L 584.531,82.437 Z M 668.449,4.175 696.554,-23.93 h 14.127 l -35.208,35.207 z m -78.262,78.262 18.211,-18.211 v 14.126 l -4.085,4.085 z m 68.426,-88.209 18.158,-18.158 h 14.127 L 665.637,1.331 Z m 19.051,54.425 -16.348,16.348 c -1.428,-1.159 -2.824,-2.34 -4.177,-3.55 l 14.834,-17.363 c 2,1.73 3.896,3.25 5.691,4.565 M 967.217,-23.93 h 0.644 l -0.987,0.988 z m -308.985,0 h 12.883 l -12.883,12.882 z M 890.142,82.3 c -1.504,0.842 -3.149,1.456 -4.925,1.853 L 894.27,75.1 c -0.407,3.469 -1.773,5.881 -4.128,7.2 m -20.03,0 c -0.59,-0.341 -1.104,-0.77 -1.569,-1.256 l 18.83,-18.829 c 0.967,0.344 1.894,0.755 2.769,1.252 2.123,1.206 3.453,3.245 3.993,6.111 l -15.086,15.087 c -3.455,-0.135 -6.437,-0.919 -8.937,-2.365 m 6.171,-28.779 17.106,-17.105 v 14.126 l -2.979,2.979 z m 71.588,-57.695 c -3.281,0 -5.64,1.309 -7.075,3.931 -0.742,1.353 -1.288,3.032 -1.646,5.025 L 911.914,32.017 V 17.89 l 40.564,-40.564 c 1.318,0.584 2.575,1.268 3.767,2.059 1.644,1.091 3.079,2.424 4.34,3.961 l -12.488,12.488 c -0.076,-10e-4 -0.148,-0.008 -0.226,-0.008 m -32.368,-8.955 c 2.393,-4.194 5.628,-7.27 9.707,-9.229 0.84,-0.403 1.707,-0.755 2.588,-1.075 l -13.96,13.96 c 0.471,-1.304 1.021,-2.527 1.665,-3.656 m -87.466,7.383 h -11.185 l 34.317,-34.317 c 1.778,3.322 2.736,7.071 2.883,11.243 L 831.06,-5.828 c -0.978,0.052 -1.983,0.082 -3.023,0.082 m 83.877,8.818 c 0,-1.85 0.104,-3.596 0.292,-5.256 l 22.917,-22.918 c 1.232,-0.128 2.496,-0.195 3.793,-0.195 3.189,0 6.266,0.376 9.229,1.128 0.045,0.011 0.087,0.028 0.133,0.039 L 911.914,12.234 Z M 581.67,51.388 608.398,24.66 V 38.786 L 581.67,65.515 Z M 866.66,-23.93 h 2.285 l -2.285,2.285 z m -29.943,77.451 14.299,-14.299 3.75,1.379 v 8.998 l -3.922,3.922 z m 29.943,-69.51 7.942,-7.941 h 14.127 L 866.66,-1.862 Z m 0,69.51 v -10.16 l 26.729,-26.728 v 14.126 l -22.762,22.762 z m 0,-29.943 26.729,-26.729 V 10.976 L 866.66,37.705 Z m 0,-19.783 26.729,-26.729 V -8.807 L 866.66,17.922 Z m 131.319,-40.03 c 0,-6.881 2.973,-12.156 8.92,-15.825 3.585,-2.211 8.09,-3.75 13.504,-4.629 l -22.333,22.333 c -0.056,-0.612 -0.091,-1.236 -0.091,-1.879 M -28.711,53.521 h -5.027 l 7.774,-7.773 z m 47.852,-5.4 c -3.9,3.478 -8.677,5.601 -14.31,6.397 L 26.297,33.052 C 25.383,39.652 23,44.678 19.141,48.121 m -87.569,-8.955 c -2.963,5.24 -7.177,9.171 -12.646,11.792 -3.831,1.835 -8.176,3.013 -13.013,3.563 L -64.226,24.66 c -0.521,5.619 -1.916,10.46 -4.202,14.506 M -72.589,7.584 -89.405,24.4 h -14.127 L -86.715,7.584 Z m -34.906,26.147 c 1.661,1.554 3.642,2.49 5.933,2.826 l -15.514,15.514 c -1.203,-0.457 -2.38,-0.954 -3.51,-1.523 -1.993,-1.005 -3.822,-2.209 -5.507,-3.586 l 16.381,-16.382 c 0.584,1.25 1.316,2.309 2.217,3.151 M 68.564,14.283 c 0,3.684 0.348,6.802 1.018,9.394 L 49.096,44.162 c -1.968,-2.657 -3.549,-5.784 -4.745,-9.38 L 68.72,10.412 c -0.097,1.216 -0.156,2.495 -0.156,3.871 m 180.332,39.238 h -5.671 l 9.566,-9.566 z M 71.709,28.707 c 2.096,3.098 4.739,4.648 7.93,4.648 0.017,0 0.033,-0.002 0.051,-0.002 L 60.042,53 C 56.961,51.724 54.176,49.8 51.687,47.229 L 71.15,27.765 c 0.18,0.324 0.36,0.648 0.559,0.942 M 428.75,14.283 c 0,2.184 0.128,4.158 0.364,5.958 l -21.466,21.466 c -1.724,-2.904 -3.069,-6.268 -4.037,-10.09 L 429.643,5.585 c -0.59,2.419 -0.893,5.309 -0.893,8.698 m 3.145,14.424 c 1.304,1.929 2.822,3.256 4.551,3.984 l -18.961,18.962 c -2.781,-1.603 -5.287,-3.809 -7.524,-6.604 l 20.154,-20.154 c 0.473,1.467 1.06,2.748 1.78,3.812 M -92.372,7.584 -109.188,24.4 h -2.033 c 0.054,0.629 0.134,1.226 0.227,1.806 l -18.014,18.014 c -1.902,-2.04 -3.571,-4.362 -4.976,-7.003 -0.249,-0.466 -0.47,-0.962 -0.699,-1.449 l 28.184,-28.184 z m 253.905,23.058 -22.879,22.879 h -3.849 V 43.243 l 26.728,-26.728 z m 0,19.782 -3.096,3.097 H 144.31 L 161.533,36.298 Z M -369.335,7.584 -386.151,24.4 h -14.127 l 16.817,-16.816 z m -86.93,55.234 c -2.591,3.74 -6.282,6.682 -11.055,8.841 l 13.551,-13.552 c -0.671,1.684 -1.492,3.262 -2.496,4.711 m 4.546,-16.338 c 0,1.441 -0.086,2.82 -0.235,4.156 l -23.742,23.742 c -4.582,1.021 -9.829,1.561 -15.743,1.617 l 38.435,-38.435 c 0.852,2.747 1.285,5.718 1.285,8.92 m -30.556,6.358 c 2.187,-1.824 3.281,-4.353 3.281,-7.588 0,-0.496 -0.023,-0.967 -0.053,-1.431 l 18.361,-18.36 c 0.358,0.341 0.731,0.673 1.072,1.026 2.043,2.117 3.688,4.476 4.973,7.055 l -42.471,42.471 h -14.127 L -490.727,55.5 c 3.776,-0.238 6.601,-1.121 8.452,-2.662 m 222.544,-19.107 c 0.483,0.453 0.997,0.847 1.534,1.196 l -15.266,15.266 c -3.019,-1.611 -5.671,-3.668 -7.96,-6.166 l 18.138,-18.138 c 0.507,3.485 1.691,6.1 3.554,7.842 m -238.472,21.841 h 1.748 l -20.44,20.439 h -8.31 v -5.816 l 27.002,-27.002 z m 18.158,-16.41 c -0.661,-1.567 -1.628,-2.801 -2.914,-3.688 -1.516,-1.045 -3.288,-1.781 -5.299,-2.226 l 31.605,-31.605 -12.019,17.972 c 1.775,0.991 3.422,2.067 4.946,3.227 z M -655.566,-23.93 h 1.215 l -1.215,1.216 z m 342.309,85.62 c 0.934,1.253 2.427,1.88 4.478,1.88 0.773,0 1.511,-0.038 2.241,-0.085 l -18.477,18.477 c -1.715,-0.463 -3.279,-1.054 -4.682,-1.781 -1.676,-0.868 -3.144,-1.955 -4.427,-3.236 l 19.543,-19.544 c 0.166,1.892 0.606,3.325 1.324,4.289 m 49.253,-54.106 h 13.367 l -33.31,33.31 c -0.814,-1.157 -1.58,-2.373 -2.274,-3.677 -0.945,-1.775 -1.732,-3.713 -2.397,-5.778 l 24.697,-24.697 c -0.029,0.28 -0.067,0.555 -0.083,0.842 m 19.024,0 h 14.127 L -247.67,24.4 h -14.126 z m -159.126,26.147 c 1.632,1.527 3.572,2.46 5.813,2.811 l -15.492,15.492 c -1.168,-0.448 -2.313,-0.932 -3.412,-1.486 -2.022,-1.02 -3.877,-2.242 -5.583,-3.645 l 16.415,-16.415 c 0.59,1.29 1.336,2.38 2.259,3.243 m 849.775,15.586 c -0.63,0.584 -1.314,1.111 -2.021,1.612 l 5.583,-5.583 c -1.069,1.431 -2.252,2.758 -3.562,3.971 M -389.118,7.584 -405.935,24.4 h -1.897 c 0.05,0.587 0.122,1.148 0.206,1.692 l -18.058,18.058 c -1.875,-2.023 -3.522,-4.322 -4.912,-6.933 -0.264,-0.496 -0.5,-1.021 -0.743,-1.539 l 28.094,-28.094 z m 24.079,31.582 c -2.963,5.24 -7.178,9.171 -12.647,11.792 -3.871,1.854 -8.266,3.039 -13.165,3.581 l 30.025,-30.025 c -0.511,5.681 -1.908,10.572 -4.213,14.652 M 710.789,15.529 694.731,31.586 c -0.102,-0.117 -0.198,-0.231 -0.302,-0.35 -1.717,-1.955 -3.863,-4.307 -6.426,-7.048 L 703.566,8.624 c 2.605,2.415 5.018,4.72 7.223,6.905 m 330.461,-42.125 c 2.324,0 4.534,-0.137 6.631,-0.41 1.017,-0.133 1.939,-0.33 2.775,-0.586 l -44.928,44.928 c 0.418,-0.995 0.896,-1.947 1.445,-2.848 2.301,-3.783 5.457,-6.563 9.468,-8.34 -3.775,-2.298 -6.375,-4.306 -7.822,-6.03 l 26.713,-26.714 z m -20.379,-5.121 c 0.227,0.602 0.57,1.171 1.033,1.703 0.911,1.049 2.154,1.88 3.726,2.495 1.308,0.512 2.741,0.798 4.285,0.884 l -23.069,23.069 c -0.303,-1.027 -0.459,-2.117 -0.459,-3.274 0,-2.188 0.877,-4.399 2.632,-6.631 1.753,-2.233 3.816,-3.852 6.186,-4.854 -2.162,-0.497 -4.12,-1.115 -5.875,-1.852 z m -82.228,85.238 h -3.011 l 3.011,-3.01 z M 846.357,27.476 c 0,1.732 -0.182,3.372 -0.546,4.922 -0.366,1.549 -0.913,2.985 -1.641,4.307 l 2.71,0.996 -15.819,15.82 h -3.297 c -1.094,0.182 -2.644,0.376 -4.649,0.581 -2.006,0.205 -3.988,0.387 -5.947,0.547 -0.53,0.043 -1.016,0.079 -1.473,0.111 l 30.504,-30.504 c 0.103,1.041 0.158,2.113 0.158,3.22 M 1028.161,0.559 c 0.14,0.377 0.302,0.758 0.511,1.146 1.685,-0.365 3.965,-0.547 6.836,-0.547 2.079,0 4.062,0.077 5.956,0.224 l -36.289,36.289 c -0.966,-2.818 -1.454,-5.941 -1.454,-9.374 0,-1.202 0.066,-2.356 0.179,-3.477 z m -89.518,44.295 -8.667,8.667 h -14.127 l 22.794,-22.794 z m 0,-33.647 V 25.071 L 911.914,51.8 V 37.673 L 938.647,10.94 c 0,0.091 -0.004,0.175 -0.004,0.267 m 314.829,25.498 c -3.305,5.924 -7.851,10.435 -13.638,13.535 -2.231,1.194 -4.587,2.153 -7.062,2.887 l 23.746,-23.746 c -0.778,2.631 -1.792,5.074 -3.046,7.324 m -42.588,-6.912 -16.941,16.94 c -2.583,-2.107 -4.803,-4.596 -6.648,-7.478 l 21.046,-21.046 c 0.252,4.932 1.095,8.8 2.543,11.584 M 1057.321,5.309 1043.243,19.386 c -0.039,-0.058 -0.073,-0.124 -0.113,-0.181 -1.391,-1.96 -3.361,-2.94 -5.913,-2.94 -2.78,0 -4.854,0.992 -6.221,2.974 -1.367,1.982 -2.051,4.956 -2.051,8.921 0,1.914 0.163,3.591 0.482,5.043 l -15.72,15.72 c -2.492,-1.736 -4.535,-3.824 -6.124,-6.271 -0.229,-0.353 -0.436,-0.721 -0.645,-1.087 l 39.576,-39.576 c 4.133,0.683 7.736,1.789 10.807,3.32 m -20.104,34.745 c 2.688,0 4.693,-1.003 6.015,-3.007 1.322,-2.006 1.983,-5.014 1.983,-9.024 0,-1.706 -0.14,-3.214 -0.403,-4.549 l 16.049,-16.049 c 0.292,0.209 0.584,0.418 0.863,0.637 2.461,1.935 4.399,4.205 5.826,6.8 l -39.398,39.398 c -3.429,-0.517 -6.534,-1.348 -9.29,-2.516 -0.545,-0.231 -1.071,-0.479 -1.587,-0.733 l 13.813,-13.813 c 1.367,1.9 3.407,2.856 6.129,2.856 m 121.474,8.067 c -0.075,0.067 -0.157,0.122 -0.233,0.188 l 2.029,-2.029 c -0.558,0.657 -1.156,1.271 -1.796,1.841 m -88.183,-20.645 c 0,1.656 -0.172,3.227 -0.505,4.716 l -21.811,21.811 c -0.303,0.033 -0.599,0.066 -0.926,0.099 -2.006,0.205 -3.989,0.387 -5.948,0.547 -1.96,0.159 -3.418,0.239 -4.375,0.239 -1.255,0 -2.465,-0.044 -3.653,-0.11 l 35.96,-35.96 c 0.837,2.619 1.258,5.505 1.258,8.658 M 811.357,1.158 c 4.32,0 8.239,0.319 11.762,0.955 l -40.004,40.004 c -1.888,-3.096 -3.018,-6.675 -3.391,-10.735 l 30.2,-30.2 c 0.467,-0.011 0.93,-0.024 1.433,-0.024 M 682.876,52.051 c 2.864,1.605 5.7,2.49 8.509,2.664 l -18.204,18.204 c -2.361,-1.112 -4.523,-2.369 -6.472,-3.778 -0.752,-0.543 -1.491,-1.095 -2.225,-1.651 l 16.545,-16.545 c 0.629,0.395 1.248,0.771 1.847,1.106 m 33.257,-31.035 c 1.507,1.613 2.874,3.225 4.113,4.838 l -18.362,18.363 c -0.238,-1.66 -0.742,-3.277 -1.542,-4.846 -0.703,-1.378 -1.724,-2.938 -3.06,-4.68 l 16.321,-16.32 c 0.876,0.901 1.728,1.787 2.53,2.645 M 523.052,33.731 c 2.119,1.983 4.751,2.974 7.895,2.974 0.148,0 0.281,-0.021 0.425,-0.025 l -16.044,16.045 c -1.868,-0.604 -3.664,-1.319 -5.367,-2.177 -1.447,-0.73 -2.813,-1.559 -4.098,-2.485 L 521.74,32.185 c 0.394,0.572 0.827,1.092 1.312,1.546 m 330.659,-56.554 c -0.779,4.945 -2.813,8.82 -6.123,11.608 -2.568,2.162 -5.925,3.667 -10.031,4.547 z M 0,-19.783 4.147,-23.93 H 18.274 L 0,-5.656 Z m 682.637,38.304 -4.351,-4.399 14.889,-14.89 7.098,6.369 c 0.118,0.107 0.228,0.209 0.345,0.315 l -15.359,15.359 c -0.842,-0.887 -1.707,-1.797 -2.622,-2.754 M 562.119,39.166 c -2.963,5.24 -7.178,9.171 -12.646,11.792 -3.039,1.456 -6.406,2.492 -10.078,3.139 l 26.578,-26.578 c -0.684,4.418 -1.965,8.304 -3.854,11.647 M 818.979,19.205 C 817.862,17.63 816.365,16.7 814.498,16.39 l 13.201,-13.2 c 3.727,1.093 6.899,2.63 9.518,4.609 l -16.421,16.42 c -0.318,-2.077 -0.921,-3.752 -1.817,-5.014 m -5.913,20.849 c 2.689,0 4.694,-1.003 6.016,-3.007 1.136,-1.724 1.78,-4.193 1.94,-7.397 L 840.2,10.472 c 2.405,2.559 4.104,5.569 5.098,9.028 l -35.327,35.327 c -4.535,-0.189 -8.583,-0.85 -12.16,-1.966 l 13.057,-13.058 c 0.678,0.162 1.406,0.251 2.198,0.251 M 804.795,28.16 c 0,3.965 0.684,6.938 2.051,8.921 0.149,0.217 0.311,0.417 0.478,0.61 l -13.598,13.598 c -3.295,-1.532 -6.038,-3.5 -8.208,-5.919 l 19.359,-19.359 c -0.049,0.684 -0.082,1.393 -0.082,2.149 M 540.686,7.584 523.869,24.4 h -4.543 c 0.122,1.421 0.352,2.704 0.672,3.872 l -17.214,17.213 c -2.374,-2.261 -4.408,-4.935 -6.089,-8.038 L 526.559,7.584 Z m -1196.252,-24.641 6.872,-6.873 h 14.127 l -20.999,20.999 z M 699.18,52.769 c 0.789,-0.545 1.407,-1.238 1.871,-2.063 L 722.597,29.16 c 1.192,1.82 2.221,3.64 3.072,5.46 0.606,1.296 1.115,2.649 1.547,4.047 l -38.474,38.474 c -3.766,-0.357 -7.126,-1.027 -10.07,-2.018 -0.51,-0.172 -1.01,-0.351 -1.505,-0.534 l 21.489,-21.488 c 0.176,-0.108 0.353,-0.214 0.524,-0.332 m 29.668,-2.666 c 0,2.79 -0.4,5.417 -1.175,7.89 l -16.904,16.905 c -4.453,1.692 -9.542,2.549 -15.281,2.549 -0.467,0 -0.917,-0.013 -1.375,-0.021 l 34.18,-34.179 c 0.363,2.18 0.555,4.461 0.555,6.856 M 546.342,7.584 h 14.127 l -18.271,18.27 c 0.049,-0.476 0.087,-0.958 0.097,-1.454 h -12.769 z m -815.923,44.384 15.455,-15.455 c 0.731,0.127 1.494,0.192 2.29,0.192 2.461,0 4.523,-0.547 6.187,-1.641 1.663,-1.094 2.927,-2.575 3.794,-4.443 0.865,-1.869 1.321,-3.943 1.367,-6.221 h -1.525 l 16.816,-16.816 h 8.976 v 5.149 l -41.899,41.899 c -4.134,-0.401 -7.949,-1.298 -11.461,-2.664 m 33.899,0.01 c -4.928,1.928 -10.603,2.901 -17.034,2.909 l 36.495,-36.496 v 1.087 c 0,5.936 -0.841,11.122 -2.52,15.56 z m 34.569,-68.478 7.43,-7.43 h 14.126 l -21.556,21.556 z m 0,39.566 26.728,-26.729 v 14.127 l -26.728,26.728 z m 0,-19.782 26.728,-26.729 v 14.126 l -26.728,26.729 z m -31.682,-7.885 11.516,-11.516 V -1.99 l -1.094,1.094 c -3.562,-1.601 -7.036,-2.836 -10.422,-3.705 m 31.682,-19.329 h 1.773 l -1.773,1.774 z M -314.521,83.189 c -2.042,0 -3.944,-0.118 -5.732,-0.333 l 20.506,-20.505 c 0.197,-0.051 0.415,-0.095 0.606,-0.148 l 3.407,10.261 -10.144,10.144 c -2.657,0.384 -5.534,0.581 -8.643,0.581 m 16.337,-42.185 v 12.517 h -12.517 z m 51.133,-47.297 c -1.475,0 -2.846,0.102 -4.127,0.292 l 17.877,-17.877 c 3.777,0.795 7.291,1.994 10.567,3.559 l -14.747,14.747 c -2.998,-0.472 -6.18,-0.721 -9.57,-0.721 m -47.273,83.004 0.926,2.787 c -1.807,0.602 -3.575,1.132 -5.306,1.593 z m 3.318,-62.428 c 0,-0.084 0.006,-0.162 0.006,-0.246 l 39.302,-39.302 c 0.478,-0.011 0.95,-0.032 1.434,-0.032 4.568,0 8.59,0.214 12.093,0.632 l -51.641,51.641 c -0.796,-3.819 -1.194,-8.05 -1.194,-12.693 m 5.298,-22.49 c 3.531,-5.834 8.374,-10.141 14.526,-12.92 4.094,-1.85 8.559,-3.07 13.379,-3.689 l -32.9,32.899 c 0.637,-6.398 2.296,-11.834 4.995,-16.29 m 204.189,3.349 c -3.425,-0.813 -7.156,-1.259 -11.157,-1.381 l 16.37,-16.37 c 2.543,0.807 4.975,1.786 7.263,2.986 v 3.878 l -11.223,11.223 c -0.417,-0.11 -0.838,-0.237 -1.253,-0.336 m 32.642,-5.614 13.458,-13.458 h 13.271 v 0.856 L -48.877,3.655 Z m 0,-13.458 h 7.802 l -7.802,7.802 z m 0,77.451 v -4.644 l 27.57,-27.57 c 0.425,2.467 1.004,4.617 1.756,6.409 0.602,1.434 1.419,2.602 2.424,3.538 l -22.268,22.267 z m -51.68,1.367 c -4.388,0 -8.455,-0.497 -12.221,-1.459 l 17.436,-17.436 c 0.686,-0.25 1.342,-0.543 1.929,-0.929 1.663,-1.094 2.928,-2.575 3.794,-4.443 0.087,-0.189 0.152,-0.389 0.231,-0.582 L -66.933,7.584 h 2.949 v 11.178 l -36.117,36.116 c -0.153,10e-4 -0.301,0.01 -0.456,0.01 M -201.113,53.521 V 42.849 l 26.794,-26.794 c 0.168,2.624 0.688,4.784 1.575,6.465 0.735,1.394 1.622,2.53 2.636,3.451 l -27.551,27.55 z M -655.566,2.726 -628.911,-23.93 h 0.483 v 13.644 l -27.138,27.138 z M -48.877,29.094 -22.148,2.365 v 7.611 c 0,2.255 0.083,4.337 0.231,6.285 l -26.96,26.96 z m -113.989,23.949 c -1.992,-0.889 -3.835,-2.005 -5.541,-3.334 l 19.887,-19.886 1.223,12.902 -11.637,11.638 c -1.328,-0.307 -2.639,-0.743 -3.932,-1.32 m 93.823,-63.132 v 9.675 c -2.332,-1.092 -4.623,-2.014 -6.88,-2.795 z m -84.741,64.958 6.977,-6.977 0.586,6.176 c -0.775,0.137 -1.96,0.308 -3.554,0.513 -1.392,0.179 -2.722,0.265 -4.009,0.288 m -21.968,-13.721 h -1.299 l -4.17,12.373 h -10.782 l 25.386,-25.385 c 1.131,0.486 2.298,0.847 3.512,1.049 1.914,0.319 3.713,0.479 5.4,0.479 1.458,0 2.7,-0.032 3.774,-0.088 l -17.443,17.443 c -1.731,-1.795 -3.201,-3.745 -4.378,-5.871 M -338.174,70.85 c -0.924,-2.192 -1.603,-4.728 -2.046,-7.592 l 29.766,-29.766 h 12.27 v 1.856 l -38.459,38.459 c -0.576,-0.917 -1.086,-1.902 -1.531,-2.957 m 230.952,-73.247 c -2.701,2.504 -4.195,5.692 -4.504,9.551 l -24.568,24.568 c -1.165,-3.528 -1.914,-7.488 -2.252,-11.874 l 45.068,-45.068 c 4.745,0.164 8.815,0.593 12.199,1.29 0.175,0.036 0.34,0.086 0.514,0.124 l -17.741,17.741 c -3.675,0.472 -6.583,1.692 -8.716,3.668 m -31.548,16.68 c 0,-6.301 0.857,-11.795 2.528,-16.522 l 19.985,-19.986 c 5.184,-1.934 10.911,-2.945 17.176,-3.048 l -39.686,39.685 c 0,-0.044 -0.003,-0.085 -0.003,-0.129 m 89.893,-4.972 26.729,-26.729 v 14.127 l -26.729,26.728 z m -559.521,45.162 26.728,-26.729 v 14.127 l -26.728,26.728 z m 83.193,-63.41 14.993,-14.993 h 12.009 v 2.118 L -525.205,5.19 Z m 0,-14.993 h 9.336 l -9.336,9.336 z m -83.193,38.837 26.728,-26.729 V 2.304 l -26.728,26.729 z m 0,67.53 v -8.181 l 26.728,-26.728 v 14.126 l -20.783,20.783 z m 11.601,0 15.127,-15.126 v 14.126 l -1,1 z M -608.398,34.69 -581.67,7.961 v 14.127 l -26.728,26.728 z m 0,-39.566 19.053,-19.054 h 7.675 v 6.452 L -608.398,9.25 Z m -47.168,47.168 27.138,-27.139 V 29.28 l -27.138,27.138 z m 0,-19.783 27.138,-27.138 V 9.497 l -27.138,27.138 z m 0,53.502 V 62.075 l 27.138,-27.139 v 14.126 l -26.949,26.949 z m 47.168,-99.941 h 13.397 l -13.397,13.397 z m -41.322,99.941 21.292,-21.292 v 14.127 l -7.165,7.165 z m 21.292,-1.509 v 1.509 h -1.509 z m 250.298,-79.36 c -3.463,-0.821 -7.238,-1.268 -11.289,-1.384 l 16.399,-16.399 c 2.581,0.812 5.047,1.802 7.366,3.018 v 3.743 l -11.33,11.329 c -0.381,-0.099 -0.767,-0.217 -1.146,-0.307 m -19.038,59.746 c -4.43,0 -8.533,-0.505 -12.329,-1.485 l 17.337,-17.338 c 0.766,-0.26 1.49,-0.576 2.136,-1.001 1.663,-1.094 2.927,-2.575 3.794,-4.443 0.12,-0.261 0.214,-0.536 0.319,-0.805 l 22.233,-22.232 h 3.082 v 11.044 l -36.253,36.253 c -0.108,10e-4 -0.211,0.007 -0.319,0.007 m 55.781,-78.818 h 3.566 l -3.566,3.566 z m 0,9.222 9.222,-9.222 h 14.127 l -23.349,23.349 z m -10.254,61.325 V 35.112 l 1.62,-1.62 h 8.634 v -8.634 l 26.729,-26.728 v 14.126 l -35.352,35.352 z m -14.013,-56.84 v 9.809 c -2.367,-1.109 -4.692,-2.04 -6.982,-2.828 z m 24.267,15.298 26.729,-26.729 v 14.127 l -26.729,26.728 z m -183.818,25.554 27.002,-27.002 v 8.81 h 5.316 l -32.318,32.319 z m 55.029,-54.559 h 13.656 l -32.725,32.726 z m -23.231,56.67 h -4.796 v 4.796 l -27.002,27.002 V 50.412 l 74.342,-74.342 h 11.312 l -5.681,8.495 z m -31.798,-21.894 27.002,-27.002 V -2.03 l -27.002,27.002 z m 184.365,43.632 v -1.299 l -5.652,-3.434 31.834,-31.833 v 14.127 l -26.077,26.076 c -0.063,-1.173 -0.105,-2.375 -0.105,-3.637 m -62.993,-56.875 c -2.666,2.471 -4.153,5.61 -4.489,9.402 l -24.615,24.615 c -1.158,-3.537 -1.899,-7.504 -2.229,-11.898 l 44.945,-44.945 c 4.8,0.16 8.916,0.589 12.33,1.293 0.138,0.028 0.269,0.068 0.406,0.098 l -17.782,17.781 c -3.606,0.486 -6.462,1.704 -8.566,3.654 m -28.947,-0.05 19.705,-19.705 c 5.199,-1.97 10.952,-3.001 17.244,-3.118 l -39.55,39.55 c 0,-6.392 0.881,-11.955 2.601,-16.727" /></g></g></g></g></svg>