<?xml version="1.0" encoding="UTF-8" standalone="no"?>
<svg
   xmlns:dc="http://purl.org/dc/elements/1.1/"
   xmlns:cc="http://creativecommons.org/ns#"
   xmlns:rdf="http://www.w3.org/1999/02/22-rdf-syntax-ns#"
   xmlns:svg="http://www.w3.org/2000/svg"
   xmlns="http://www.w3.org/2000/svg"
   viewBox="0 0 2645.6667 226.772"
   height="226.772"
   width="2645.6667"
   xml:space="preserve"
   id="svg2"
   version="1.1"><metadata
     id="metadata8"><rdf:RDF><cc:Work
         rdf:about=""><dc:format>image/svg+xml</dc:format><dc:type
           rdf:resource="http://purl.org/dc/dcmitype/StillImage" /></cc:Work></rdf:RDF></metadata><defs
     id="defs6"><clipPath
       id="clipPath18"
       clipPathUnits="userSpaceOnUse"><path
         id="path16"
         d="M 0,170.079 H 1984.252 V 0 H 0 Z" /></clipPath></defs><g
     transform="matrix(1.3333333,0,0,-1.3333333,0,226.772)"
     id="g10"><g
       id="g12"><g
         clip-path="url(#clipPath18)"
         id="g14"><g
           transform="translate(881.6108,81.7136)"
           id="g20"><path
             id="path22"
             style="fill:#ffffff;fill-opacity:1;fill-rule:nonzero;stroke:none"
             d="M 0,0 C -2.613,-0.12 -5.074,-0.345 -7.391,-0.667 L 6.524,-14.582 c 0.13,0.006 0.249,0.017 0.38,0.021 l 6.153,0.274 v -6.016 c 0,-0.265 -0.02,-0.519 -0.035,-0.777 L 39.648,-47.706 V -33.58 L 5.882,0.187 Z m -4.307,-29.497 c -0.461,0.409 -0.839,0.899 -1.149,1.456 L -25.97,-7.527 c -2.732,-2.164 -4.725,-4.88 -5.982,-8.144 L 1.279,-48.903 c 2.772,0.801 5.257,1.997 7.437,3.615 0.572,0.425 1.14,0.882 1.705,1.37 l -13.626,13.626 c -0.393,0.229 -0.761,0.493 -1.102,0.795 m 13.911,1.196 c -1.791,-1.596 -3.87,-2.563 -6.227,-2.916 l 9.904,-9.905 c 0.728,0.785 1.452,1.604 2.168,2.499 h 0.547 l 5.127,-10.254 h 14.04 l -23.351,23.351 c -0.553,-1.023 -1.283,-1.951 -2.208,-2.775 m -20.2,56.465 c -1.613,-0.338 -3.165,-0.734 -4.682,-1.161 l 16.07,-16.07 c 0.924,0.086 1.827,0.141 2.694,0.141 2.871,0 5.161,-0.729 6.87,-2.187 1.709,-1.459 2.564,-3.92 2.564,-7.383 V 0.41 L 11.364,0.361 39.648,-27.923 v 14.126 L -3.449,29.3 c -2.491,-0.284 -4.877,-0.66 -7.147,-1.136 m -104.126,-59.981 13.271,-13.271 c 0.649,-0.345 1.307,-0.679 1.988,-0.986 5.146,-2.326 10.875,-3.665 17.169,-4.045 l -36.931,36.931 c 0.276,-7.363 1.78,-13.57 4.503,-18.629 m 26.983,4.473 c -1.925,1.784 -3.227,3.92 -3.938,6.391 l -25.749,25.75 c -1.012,-3.682 -1.606,-7.797 -1.793,-12.334 l 42.69,-42.69 c 5.062,0.073 9.428,0.418 13.085,1.042 l -18.858,18.857 c -2.167,0.649 -3.985,1.638 -5.437,2.984 m 217.246,2.461 c -2.156,1.447 -3.939,3.363 -5.367,5.727 L 92.937,12.047 C 92.37,8.474 92.08,4.734 92.08,0.82 c 0,-0.705 0.027,-1.391 0.043,-2.085 l 48.932,-48.932 c 4.376,0.107 8.556,0.511 12.514,1.252 0.099,0.018 0.197,0.045 0.296,0.064 l -23.434,23.435 c -0.313,0.182 -0.626,0.363 -0.924,0.563 M -75.332,-31.24 c -0.142,0 -0.273,0.011 -0.414,0.012 l 16.932,-16.932 c 3.286,0.888 6.374,2.079 9.253,3.59 v 1.284 l -13.311,13.312 c -3.812,-0.832 -7.956,-1.266 -12.46,-1.266 m 25.771,-6.389 v 12.268 c -3.008,-1.409 -5.95,-2.543 -8.834,-3.434 z m 15.997,12.404 c 0,-3.774 0.468,-7.101 1.382,-10 l 13.785,-13.785 c 2.58,-0.816 5.359,-1.234 8.348,-1.234 2.422,0 4.626,0.132 6.625,0.387 L -33.15,-20.13 c -0.271,-1.6 -0.414,-3.293 -0.414,-5.095 M -95.317,27.91 -79.106,11.699 c 2.012,-0.134 3.749,-0.644 5.175,-1.582 1.663,-1.094 2.928,-2.575 3.794,-4.443 0.592,-1.279 0.978,-2.66 1.186,-4.13 l 18.907,-18.907 h 5.542 v 8.585 l -38.669,38.669 c -4.373,-0.159 -8.42,-0.822 -12.146,-1.981 m -295.904,-40.408 26.729,-26.729 v 14.126 l -26.729,26.729 z m 627.142,39.826 c -4.648,1.742 -9.756,2.613 -15.325,2.613 -0.469,0 -0.921,-0.023 -1.382,-0.033 l 39.797,-39.797 c -0.008,6.359 -0.93,11.989 -2.763,16.89 z M 231.807,-9.98 c 0,-4.408 -0.374,-8.124 -1.122,-11.149 l 18.317,-18.317 c 2.296,2.413 4.212,5.206 5.741,8.386 L 231.78,-8.097 c 0.016,-0.614 0.027,-1.239 0.027,-1.883 M 202.685,26.654 219.343,9.996 c 0.323,0.024 0.641,0.053 0.979,0.053 2.825,0 5.07,-0.752 6.734,-2.256 1.663,-1.504 2.871,-3.737 3.623,-6.699 0.237,-0.934 0.432,-1.949 0.594,-3.028 l 25.123,-25.123 c 1.242,3.546 2.036,7.461 2.393,11.734 l -44.864,44.864 c -4.09,-0.491 -7.836,-1.453 -11.24,-2.887 m 68.36,-68.36 6.227,-6.227 c 2.349,-0.626 4.684,-1.107 7,-1.422 2.849,-0.388 5.972,-0.636 9.319,-0.77 l -22.546,22.546 z m -0.137,48.815 c 0,-4.238 0.706,-7.816 2.119,-10.732 0.173,-0.356 0.356,-0.705 0.55,-1.049 l 7.827,-7.826 c 2.469,-1.582 5.369,-3.068 8.713,-4.455 4.329,-1.777 7.691,-3.191 10.083,-4.238 2.393,-1.049 4.056,-1.972 4.99,-2.769 0.934,-0.798 1.402,-1.767 1.402,-2.905 0,-1.322 -0.696,-2.314 -2.085,-2.974 -1.099,-0.522 -2.71,-0.835 -4.819,-0.944 l 16.852,-16.852 c 0.512,0.193 1.02,0.389 1.502,0.604 2.896,1.29 5.307,2.883 7.252,4.768 l -53.975,53.976 c -0.268,-1.451 -0.411,-2.982 -0.411,-4.604 M 181.699,-9.98 c 0,-0.596 0.017,-1.179 0.033,-1.762 l 38.501,-38.501 c 4.555,0.003 8.755,0.513 12.603,1.523 L 182.771,1.345 c -0.707,-3.479 -1.072,-7.248 -1.072,-11.325 m 45.391,-18.082 c -1.641,-1.572 -3.852,-2.358 -6.631,-2.358 -0.094,0 -0.183,0.008 -0.276,0.01 l 16.919,-16.919 c 3.342,1.303 6.335,3.019 8.967,5.16 l -16.91,16.909 c -0.586,-1.104 -1.274,-2.04 -2.069,-2.802 M 140.547,52.5 c -1.083,0 -2.146,-0.03 -3.195,-0.079 l 26.543,-26.543 3.957,10.169 -15.401,15.401 C 148.322,52.14 144.35,52.5 140.547,52.5 m 15.7,-78.323 10.892,-10.892 v 14.127 l -0.51,0.51 c -3.485,-1.424 -6.945,-2.668 -10.382,-3.745 m -14.47,-2.341 c -1.09,0 -2.133,0.063 -3.142,0.17 l 19.802,-19.802 c 2.941,0.809 5.845,1.823 8.702,3.089 v 2.335 l -15.315,15.315 c -3.247,-0.735 -6.595,-1.107 -10.047,-1.107 m 42.759,0.957 c 1.891,-5.014 4.568,-9.229 8.032,-12.647 3.463,-3.417 7.531,-6.004 12.203,-7.758 2.961,-1.112 6.113,-1.87 9.451,-2.277 l -31.99,31.99 c 0.464,-3.338 1.224,-6.446 2.304,-9.308 m -15.1,67.327 2.078,5.339 c -3.882,1.871 -7.836,3.351 -11.862,4.445 z m 116.511,-69.48 c -3.52,0.681 -6.996,1.674 -10.428,2.963 l 23.842,-23.842 c 4.865,0.017 9.141,0.45 12.827,1.3 l -18.354,18.354 c -2.252,0.235 -4.875,0.641 -7.887,1.225 m -629.111,59.301 c -3.734,0 -7.06,-0.463 -9.991,-1.373 l 36.338,-36.338 c 0.317,4.552 1.092,8.238 2.33,11.051 0.077,0.175 0.171,0.326 0.254,0.492 l -26.072,26.072 c -0.926,0.057 -1.872,0.096 -2.859,0.096 m 91.943,-78.818 h 9.421 l -9.421,9.42 z m -44.912,20.423 20.423,-20.423 h 6.306 v 7.821 l -26.729,26.729 z m -13.603,55.593 c -0.544,-0.263 -1.07,-0.544 -1.585,-0.838 l 41.917,-41.917 V -1.49 l -31.205,31.205 c -3.29,-0.376 -6.335,-1.23 -9.127,-2.576 m -9.502,-7.998 h -0.821 c -2.324,3.372 -5.332,6.015 -9.023,7.929 -1.37,0.711 -2.88,1.288 -4.527,1.735 l 21.847,-21.847 c 1.627,1.32 3.707,1.997 6.264,1.997 3.099,0 5.435,-1.151 7.007,-3.452 1.572,-2.302 2.358,-6.392 2.358,-12.271 v -1.903 l 26.729,-26.728 v 14.126 l -45.276,45.276 c -1.719,-1.396 -3.243,-3.011 -4.558,-4.862 m 23.105,-67.378 0.64,-0.64 h 14.127 l -14.767,14.767 z m -95.088,55.522 26.729,-26.729 v 4.473 c 0,3.421 0.154,6.481 0.456,9.198 l -27.185,27.184 z m 0,21.289 v -1.506 l 27.973,-27.973 c 0.707,3.057 1.828,5.426 3.37,7.092 0.603,0.65 1.293,1.18 2.063,1.601 l -20.786,20.786 z m 47.442,-68.731 8.72,-8.72 h 14.127 l -22.847,22.847 z m 0,33.389 v -13.606 l 26.797,-26.797 v 14.127 l -26.803,26.803 c 0.001,-0.177 0.006,-0.347 0.006,-0.527 m 0,-42.109 h 3.063 l -3.063,3.064 z m -17.329,73.486 c -1.543,-1.169 -2.874,-2.459 -4.011,-3.86 l 11.816,-11.816 c 0.19,0.007 0.374,0.022 0.569,0.022 2.005,0 3.668,-0.536 4.99,-1.606 1.321,-1.072 2.312,-2.758 2.973,-5.059 0.21,-0.73 0.382,-1.54 0.525,-2.414 l 27.264,-27.263 v 14.127 l -40.23,40.229 c -1.416,-0.689 -2.722,-1.469 -3.896,-2.36 m 157.465,-34.316 c 0,-4.436 -0.44,-8.1 -1.303,-11.018 l 20.083,-20.084 c 1.916,2.425 3.548,5.295 4.873,8.646 0.057,0.145 0.105,0.301 0.161,0.447 l -23.845,23.845 c 0.017,-0.6 0.031,-1.204 0.031,-1.836 m 42.452,24.359 26.728,-26.728 V 2.05 l -26.728,26.729 z m 0,-19.782 26.728,-26.729 v 14.126 l -26.728,26.729 z m 0,39.566 26.728,-26.729 v 14.126 l -26.728,26.729 z m 0,-59.35 23.963,-23.963 h 2.765 v 11.361 l -26.728,26.728 z m 0,82.404 v -3.272 l 26.728,-26.728 v 14.126 l -15.874,15.874 z m -52.227,-86.201 c -1.447,0 -2.73,0.189 -3.869,0.544 l 20.814,-20.815 c 2.329,0.756 4.511,1.843 6.536,3.284 0.826,0.587 1.606,1.247 2.361,1.946 l -19.076,19.076 c -1.654,-2.68 -3.904,-4.035 -6.766,-4.035 m -37.803,14.694 31.916,-31.916 c 0.671,-0.501 1.368,-0.993 2.093,-1.474 2.848,-1.891 7.007,-2.837 12.476,-2.837 1.246,0 2.453,0.087 3.632,0.237 l -50.117,50.116 z m 0,-19.783 15.077,-15.077 h 5.773 l 2.994,5.36 -23.844,23.843 z m 90.03,-10.897 4.18,-4.18 h 14.126 l -18.306,18.307 z m 26.728,91.97 V 57.49 h -10.217 z m -67.369,-17.42 c -0.685,0.052 -1.377,0.088 -2.084,0.088 -3.984,0 -7.386,-0.642 -10.211,-1.92 l 37.687,-37.687 c -0.019,5.912 -0.581,11.178 -1.679,15.806 z m -22.656,-11.253 9.711,-9.711 c 0.358,0.027 0.707,0.066 1.086,0.066 3.418,0 5.947,-1.561 7.587,-4.683 0.83,-1.577 1.448,-3.551 1.858,-5.914 l 25.8,-25.8 c 0.977,3.666 1.585,7.768 1.85,12.277 l -41.057,41.057 c -2.767,-2.061 -5.047,-4.489 -6.835,-7.292 M 96.968,-25.84 c 0.014,-0.034 0.032,-0.066 0.047,-0.1 l 20.607,-20.607 c 5.086,-2.105 11.001,-3.304 17.735,-3.609 L 92.465,-7.263 c 0.65,-6.835 2.143,-13.033 4.503,-18.577 m 604.331,8.891 26.728,-26.729 v 14.127 l -26.728,26.729 z m 0,19.783 26.728,-26.729 v 8.924 c 0,1.786 0.052,3.465 0.145,5.058 L 701.299,16.96 Z m 48.877,-48.877 2.834,-2.834 h 14.126 l -16.96,16.96 z m -48.877,9.311 12.144,-12.145 h 14.127 l -26.271,26.271 z m 0,65.306 v -5.958 l 27.377,-27.377 c 0.433,2.957 1.083,5.467 1.949,7.53 0.467,1.112 1.065,2.061 1.774,2.874 l -22.931,22.931 z m -58.345,-55.918 c -2.343,2.172 -3.773,4.86 -4.317,8.051 L 613.57,5.774 c -1.088,-3.606 -1.764,-7.639 -2.025,-12.102 l 43.873,-43.873 c 5.031,0.12 9.334,0.526 12.909,1.218 l -18.235,18.235 c -2.936,0.592 -5.321,1.721 -7.138,3.404 m 58.345,-21.533 h 6.488 l -6.488,6.488 z M 272.627,16.06 327.871,-39.184 c 0.229,0.342 0.458,0.683 0.664,1.039 1.623,2.807 2.642,5.93 3.06,9.364 L 279.044,23.77 c -2.928,-2.064 -5.071,-4.632 -6.417,-7.71 m 477.549,-42.32 22.616,-22.617 h 4.112 v 10.015 l -26.728,26.728 z M 636.35,28.216 653.043,11.523 c 1.398,-0.251 2.65,-0.703 3.72,-1.406 1.663,-1.094 2.927,-2.575 3.794,-4.443 0.373,-0.806 0.654,-1.658 0.875,-2.54 l 20.498,-20.497 h 4.261 v 9.865 l -37.419,37.419 c -4.466,-0.065 -8.612,-0.625 -12.422,-1.705 m 44.783,-64.565 v 10.988 c -2.675,-1.252 -5.294,-2.275 -7.87,-3.118 z m 180.298,3.195 c 3.531,-5.834 8.374,-10.141 14.526,-12.92 3.202,-1.447 6.63,-2.508 10.276,-3.202 l -29.41,29.41 c 0.812,-5.111 2.342,-9.547 4.608,-13.288 m 51.953,3.349 c -0.379,-0.09 -0.778,-0.154 -1.164,-0.235 l 13.639,-13.64 v 14.127 l -2.909,2.909 c -3.263,-1.363 -6.453,-2.422 -9.566,-3.161 m -13.296,-1.435 c -2.896,0 -5.406,0.375 -7.555,1.103 l 19.103,-19.102 c 0.684,0.112 1.351,0.231 1.987,0.362 3.175,0.655 6.168,1.591 8.991,2.787 l -15.254,15.254 c -2.317,-0.264 -4.736,-0.404 -7.272,-0.404 M 929.56,6.313 907.561,28.312 c -3.984,1.081 -8.385,1.629 -13.215,1.629 -0.84,0 -1.664,-0.024 -2.481,-0.059 l 39.053,-39.054 v 3.703 c 0,4.331 -0.464,8.248 -1.358,11.782 m -73.427,-16.977 c 0,-0.999 0.03,-1.969 0.072,-2.927 l 36.498,-36.498 c 1.366,-0.093 2.751,-0.155 4.172,-0.155 3.569,0 6.804,0.131 9.722,0.387 l -49.665,49.665 c -0.524,-3.224 -0.799,-6.705 -0.799,-10.472 m 19.582,36.912 15.24,-15.24 c 1.32,0.499 2.769,0.75 4.348,0.75 2.461,0 4.522,-0.547 6.186,-1.641 1.663,-1.094 2.928,-2.575 3.794,-4.443 0.865,-1.869 1.321,-3.943 1.367,-6.221 h -4.14 l 16.816,-16.816 h 11.592 v 2.535 l -44.225,44.225 c -3.964,-0.578 -7.621,-1.631 -10.978,-3.149 m -36.057,-54.617 c -2.006,-0.502 -4.216,-0.752 -6.631,-0.752 -0.308,0 -0.605,0.014 -0.895,0.036 l 13.815,-13.814 v 14.126 l -1.742,1.743 c -1.559,-0.511 -3.086,-0.974 -4.547,-1.339 m -99.804,56.943 c -1.251,-0.385 -2.427,-0.859 -3.556,-1.39 l 40.606,-40.607 V 0.704 l -29.172,29.172 c -2.847,-0.14 -5.48,-0.564 -7.878,-1.302 M 798.848,4.2 825.841,-22.793 c -0.036,0.382 -0.06,0.775 -0.06,1.191 v 12.995 l -31.449,31.449 -4.85,-3.428 v -5.849 l 5.021,-5.02 h 4.345 z m -66.856,20.409 c -2.279,-1.732 -4.238,-3.828 -5.879,-6.289 h -0.735 L 735.683,8.016 c 1.461,0.62 3.166,0.939 5.128,0.939 3.281,0 5.662,-1.31 7.143,-3.931 1.465,-2.593 2.203,-6.429 2.219,-11.498 l 26.731,-26.732 v 14.127 l -44.187,44.188 c -0.24,-0.169 -0.492,-0.323 -0.725,-0.5 m 66.856,-47.988 c 0,-5.806 0.745,-10.529 2.214,-14.202 l 10.56,-10.56 c 3.672,-1.396 7.862,-2.103 12.587,-2.103 1.245,0 2.434,0.025 3.571,0.073 l -28.932,28.932 z m -184.074,-5.961 16.932,-16.932 c 5.393,-2.36 11.408,-3.667 18.044,-3.918 l -38.314,38.314 c 0.12,-6.757 1.232,-12.578 3.338,-17.464 m 184.074,13.757 34.143,-34.143 c 1.335,0.18 2.571,0.404 3.694,0.678 2.577,0.631 5.043,1.417 7.407,2.348 L 798.848,-1.456 Z M 668.657,-29.805 c -3.789,-0.899 -7.945,-1.359 -12.438,-1.414 l 16.65,-16.65 c 2.915,0.854 5.677,1.942 8.264,3.299 v 2.564 l -12.259,12.259 c -0.072,-0.017 -0.145,-0.041 -0.217,-0.058 m -257.475,6.227 25.299,-25.299 h 1.429 v 12.697 l -26.728,26.729 z m 0,19.783 26.728,-26.729 v 14.127 l -26.728,26.729 z m 0,-39.566 5.516,-5.516 h 14.126 l -19.642,19.642 z m 7.196,71.935 19.532,-19.532 v 14.127 l -5.405,5.405 z m -7.196,0 V 15.988 L 437.91,-10.74 V 3.386 L 412.722,28.574 Z M 397.51,-29.689 v 3.234 c -0.828,-0.294 -1.63,-0.548 -2.432,-0.802 z m -43.921,-9.994 c 2.119,-3.896 5.093,-6.63 8.921,-8.203 3.033,-1.246 6.444,-1.99 10.222,-2.248 l -22.144,22.143 c 0.379,-4.799 1.375,-8.702 3.001,-11.692 m -30.488,33.428 c -2.94,2.073 -6.665,4.022 -11.177,5.845 -1.922,0.777 -3.626,1.471 -5.135,2.092 l 24.987,-24.987 c -0.167,3.763 -0.869,6.93 -2.113,9.496 -1.435,2.962 -3.623,5.48 -6.562,7.554 m 61.489,-22.866 c -2.279,0 -4.057,0.626 -5.332,1.88 -1.277,1.253 -1.914,3.133 -1.914,5.639 v 6.422 l -35.3,35.3 -0.999,-0.706 V 8.545 h 9.365 V -2.373 l 44.584,-44.584 c 0.851,0.323 1.692,0.659 2.516,1.019 v 10.592 l -6.856,6.856 c -1.856,-0.414 -3.871,-0.631 -6.064,-0.631 m 30.044,86.475 c -1.09,-0.631 -1.955,-1.517 -2.614,-2.638 l 18.013,-18.013 c 1.665,0.404 3.209,1.01 4.63,1.818 1.618,0.918 2.76,2.337 3.459,4.219 l -16.788,16.789 c -2.52,-0.332 -4.758,-1.052 -6.7,-2.175 m -64.224,-79.51 28.043,-28.043 c 3.862,0.119 7.133,0.5 9.794,1.151 0.848,0.208 1.684,0.433 2.509,0.673 L 350.41,-8.029 Z m 64.224,60.677 c 2.757,-1.619 6.095,-2.427 10.014,-2.427 0.112,0 0.218,0.007 0.329,0.009 L 410.669,50.41 c -0.103,-0.8 -0.171,-1.641 -0.171,-2.558 0,-4.604 1.378,-7.714 4.136,-9.331 m 149.98,-64.908 c -1.845,-1.823 -4.455,-2.734 -7.827,-2.734 -0.614,0 -1.184,0.061 -1.734,0.153 l 13.611,-13.611 c 0.94,1.008 1.794,2.115 2.547,3.341 h 1.572 l 3.35,-9.639 h 12.956 l -23.552,23.552 c -0.292,-0.378 -0.595,-0.739 -0.923,-1.062 m 12.029,54.961 19.656,-19.656 v 14.127 l -5.529,5.529 z m -55.813,-43.102 34.884,-34.884 c 0.45,0.096 0.902,0.183 1.347,0.296 2.961,0.752 5.662,1.936 8.1,3.554 0.166,0.11 0.313,0.24 0.475,0.355 L 520.83,-0.401 Z m 47.647,-3.792 c -0.25,-1.217 -0.57,-2.324 -0.951,-3.338 l 27.219,-27.219 h 1.554 v 12.572 l -26.82,26.82 c -0.149,-3.34 -0.481,-6.29 -1.002,-8.835 m 1.093,14.4 26.729,-26.728 v 14.127 L 569.57,10.207 Z m 0,32.494 V 15.863 l 26.729,-26.728 V 3.262 L 570.986,28.574 Z M 450.967,8.545 h 1.567 l -1.567,1.567 z m 9.365,-2.141 26.934,-26.934 v 14.127 l -30.158,30.158 -6.141,-4.341 v -3.645 l 7.224,-7.224 h 2.141 z m -25.669,50.95 c -2.28,1.276 -4.879,2.033 -7.786,2.288 l 12.048,-12.048 c 10e-4,0.088 0.011,0.168 0.011,0.258 0,4.739 -1.425,7.906 -4.273,9.502 m 66.48,-85.723 c -1.636,-0.409 -3.414,-0.642 -5.321,-0.717 l 11.61,-11.61 v 14.127 l -0.086,0.086 c -2.156,-0.762 -4.225,-1.392 -6.203,-1.886 m -40.811,4.99 c 0,-4.216 0.394,-7.861 1.169,-10.952 l 14.82,-14.82 c 2.854,-0.723 5.973,-1.093 9.372,-1.093 2.031,0 3.91,0.067 5.651,0.196 l -31.012,31.012 z m 60.498,1.504 c 0,-6.424 1.14,-11.696 3.401,-15.837 l 9.254,-9.254 c 0.214,-0.112 0.421,-0.233 0.641,-0.339 4.078,-1.959 8.647,-2.939 13.706,-2.939 0.991,0 1.967,0.049 2.936,0.122 l -29.938,29.937 z m -60.498,8.495 36.044,-36.043 c 0.621,0.114 1.226,0.236 1.793,0.375 3.15,0.771 6.137,1.771 8.968,2.99 L 460.332,0.747 Z M 16.298,29.337 c -2.456,0.398 -5.082,0.604 -7.89,0.604 -2.29,0 -4.5,-0.069 -6.645,-0.196 L 39.648,-8.14 V 1.914 c 0,1.495 -0.083,2.928 -0.236,4.309 z m 307.657,-23.185 3.658,8.616 -14.307,14.306 c -3.342,0.57 -6.83,0.867 -10.474,0.867 -1.506,0 -2.948,-0.063 -4.362,-0.157 L 320.739,7.515 c 1.075,-0.43 2.148,-0.88 3.216,-1.363 M -14.768,6.71 c 2.684,1.072 5.362,1.996 8.035,2.758 0.906,0.258 1.79,0.482 2.656,0.678 l -15.478,15.477 c -2.179,-0.786 -4.265,-1.658 -6.216,-2.654 l 4.095,-9.351 z m 8.539,-28.322 c 0.378,1.855 1.302,3.352 2.777,4.488 1.141,0.879 2.786,1.527 4.901,1.961 l -13.635,13.635 c -3.99,-0.889 -7.45,-2.139 -10.372,-3.755 z M 119.834,0.684 c 0,1.419 0.059,2.776 0.145,4.104 L 97.54,27.228 C 96.687,25.43 95.919,23.561 95.259,21.602 94.73,20.031 94.267,18.421 93.87,16.771 l 26.954,-26.954 c -0.657,3.21 -0.99,6.829 -0.99,10.867 M -48.945,14.219 c -0.744,1.314 -1.566,2.546 -2.467,3.696 l -4.7,4.7 c -1.661,1.305 -3.485,2.44 -5.48,3.396 -4.566,2.187 -9.857,3.449 -15.852,3.81 L -44.56,-3.064 c -0.275,6.819 -1.731,12.586 -4.385,17.283 M -88.013,8.784 c 1.134,1.06 2.418,1.828 3.845,2.321 l -15.268,15.268 c -0.561,-0.249 -1.123,-0.498 -1.668,-0.772 -2.553,-1.288 -4.839,-2.899 -6.888,-4.799 l 17.04,-17.04 c 0.639,2.112 1.619,3.787 2.939,5.022 m 386.128,2.29 c 1.139,0.547 2.757,0.821 4.854,0.821 2.308,0 5.404,-0.519 9.286,-1.553 l -18.872,18.873 c -4.045,-0.659 -7.634,-1.779 -10.777,-3.35 l 15.063,-15.063 c 0.145,0.092 0.276,0.191 0.446,0.272 M 211.538,4.99 c 0.876,1.642 2.025,2.877 3.436,3.719 l -16.073,16.073 c -2.983,-1.707 -5.594,-3.805 -7.833,-6.294 l 18.676,-18.676 c 0.44,2.011 1.031,3.749 1.794,5.178 m -79.809,23.345 c 0.957,0.514 1.966,0.928 3.024,1.245 l -17.804,17.803 c -3.12,-1.564 -5.953,-3.44 -8.498,-5.628 l 17.908,-17.907 c 1.554,1.886 3.335,3.396 5.37,4.487 M 121.235,13.159 c 0.703,2.76 1.645,5.203 2.826,7.331 l -18.509,18.508 c -0.323,-0.339 -0.651,-0.673 -0.962,-1.024 -1.919,-2.164 -3.611,-4.517 -5.096,-7.044 L 120.557,9.867 c 0.191,1.134 0.41,2.239 0.678,3.292 m 19.038,17.193 c 4.193,0 8.158,-0.593 11.895,-1.778 1.753,-0.556 3.495,-1.178 5.228,-1.854 L 132.15,51.966 c -4.045,-0.537 -7.798,-1.496 -11.279,-2.847 l 18.784,-18.784 c 0.206,0.006 0.409,0.017 0.618,0.017 M 208.838,-9.98 c 0,1.73 0.065,3.344 0.189,4.853 l -20.459,20.458 c -0.785,-1.132 -1.523,-2.314 -2.186,-3.573 -0.971,-1.843 -1.773,-3.828 -2.441,-5.926 l 25.778,-25.779 c -0.587,2.795 -0.881,6.117 -0.881,9.967 M 31.377,22.661 c -2.1,1.848 -4.512,3.342 -7.233,4.486 L 37.652,13.64 c -1.379,3.541 -3.468,6.55 -6.275,9.021 m -442.148,-8.442 c -2.963,5.24 -7.178,9.171 -12.647,11.792 -2.83,1.356 -5.941,2.353 -9.32,3.008 l 25.692,-25.692 c -0.711,4.105 -1.945,7.742 -3.725,10.892 m 39.716,14.355 h -1.889 l 3.187,-3.186 z m 94.644,-5.4 c -4.39,4.24 -10.646,6.461 -18.717,6.716 l 25.654,-25.655 c -0.399,8.534 -2.707,14.853 -6.937,18.939 m -149.511,-40.537 h 14.127 l -18.997,18.996 c 0.105,-0.707 0.181,-1.428 0.196,-2.18 h -12.142 z m -23.917,26.147 c 2.119,1.983 4.751,2.974 7.896,2.974 0.378,0 0.73,-0.037 1.089,-0.063 l -16.233,16.233 c -2.04,-0.632 -3.995,-1.396 -5.843,-2.327 -1.31,-0.661 -2.545,-1.412 -3.722,-2.234 l 15.769,-15.769 c 0.323,0.427 0.665,0.831 1.044,1.186 m 374.356,-26.147 -35.259,35.259 c -1.401,-1.696 -2.662,-3.562 -3.76,-5.625 -0.548,-1.031 -1.032,-2.128 -1.486,-3.256 l 26.378,-26.378 z m 19.783,0 -16.816,16.816 h -14.127 l 16.816,-16.816 z m -128.426,37.05 c -2.937,3.917 -6.359,6.706 -10.261,8.378 l 13.191,-13.191 c -0.862,1.741 -1.834,3.352 -2.93,4.813 m -40.366,-30.625 v 3.76 c 0,0.115 0.004,0.224 0.004,0.338 l -26.733,26.733 V 5.766 l 28.376,-28.376 c -1.092,2.85 -1.647,6.73 -1.647,11.672 m 0,63.451 -4.977,4.977 h -14.126 l 19.103,-19.103 z m 1.162,-50.565 c 0.774,2.393 1.959,4.158 3.555,5.298 0.193,0.138 0.414,0.242 0.621,0.363 l -32.067,32.067 V 25.549 l 27.104,-27.103 c 0.19,1.288 0.449,2.46 0.787,3.502 m -208.248,-19.311 -16.817,16.816 h -5.169 c 0.139,1.621 0.409,3.074 0.805,4.365 l -17.021,17.02 c -2.409,-2.226 -4.473,-4.87 -6.186,-7.94 l 30.261,-30.261 z m 206.812,42.964 c 0.167,2.271 0.248,4.66 0.262,7.141 l -24.748,24.748 h -1.969 V 45.333 l 25.868,-25.868 c 0.228,1.939 0.428,3.97 0.587,6.136 m 994.082,-2.427 c -4.236,3.778 -9.51,5.952 -15.792,6.566 L 776.655,6.61 c -0.748,7.342 -3.192,12.866 -7.339,16.564 m -47.851,5.4 h -6.341 l 9.805,-9.805 z M 681.748,14.219 c -2.963,5.24 -7.178,9.171 -12.646,11.792 -4.215,2.019 -9.046,3.252 -14.479,3.715 L 686.057,-1.707 C 685.65,4.52 684.224,9.838 681.748,14.219 M 642.681,8.784 c 1.389,1.3 3.003,2.165 4.833,2.612 l -15.362,15.363 c -0.872,-0.359 -1.73,-0.739 -2.562,-1.158 -2.278,-1.148 -4.346,-2.55 -6.222,-4.186 L 640.072,4.712 c 0.629,1.666 1.494,3.03 2.609,4.072 m 33.592,-26.147 -16.816,16.816 H 645.33 l 16.817,-16.816 z M 825.781,8.545 h 2.631 l -24.724,24.724 -2.311,-5.447 -3.731,-2.637 28.135,-28.135 z m 87.889,-25.908 -16.816,16.816 h -13.172 c 0.364,4.238 1.606,7.349 3.725,9.331 0.02,0.019 0.042,0.034 0.062,0.053 L 872.007,24.3 c -2.864,-1.767 -5.361,-3.982 -7.504,-6.624 l 35.04,-35.039 z m 4.157,41.065 7.212,-7.212 c -1.97,2.858 -4.37,5.265 -7.212,7.212 m -92.046,20.39 h -7.476 l 7.476,-7.477 z M 844.785,8.545 v 3.41 l -16.619,16.619 h -2.385 v 2.385 l -13.133,13.133 h -4.367 L 805.374,37.24 834.069,8.545 Z m 0,20.029 h -10.963 l 10.963,-10.963 z m 38.35,-45.937 h 10.752 l -31.748,31.748 c -0.425,-0.683 -0.833,-1.386 -1.221,-2.114 -1.247,-2.342 -2.241,-4.945 -3.001,-7.791 l 25.984,-25.985 c -0.425,1.285 -0.683,2.663 -0.766,4.142 m -486.787,42.529 -3.409,3.408 H 378.812 L 396.348,11.039 Z M 377.344,44.092 H 363.295 L 377.344,30.043 Z M 331.27,23.379 c -3.606,1.598 -7.121,2.909 -10.548,3.937 l 8.577,-8.578 z M 487.266,8.545 h 4.835 l -26.272,26.271 -2.968,-6.994 -2.44,-1.725 26.845,-26.844 z M 656.49,-17.363 639.674,-0.547 h -0.719 c 0.019,0.222 0.051,0.428 0.075,0.644 l -18.495,18.495 c -1.641,-1.872 -3.094,-3.974 -4.344,-6.321 -0.4,-0.753 -0.775,-1.532 -1.126,-2.336 l 27.298,-27.298 z m -279.146,21.966 -24.052,24.051 -0.353,-0.832 -7.581,-5.359 31.986,-31.986 z m 15.841,3.942 -33.998,33.999 -4.209,-9.918 24.081,-24.081 z m 154.374,3.891 -16.139,16.138 h -10.59 v -3.536 l 26.729,-26.729 z m 0,16.138 h -10.483 l 10.483,-10.482 z m -41.289,0 h -8.759 l 8.759,-8.759 z m -19.004,15.518 h -5.273 l 5.273,-5.273 z m 60.293,-57.832 v 6.393 L 520.83,19.382 V 5.255 l 27.809,-27.809 c -0.715,2.346 -1.08,5.275 -1.08,8.814 M 506.27,8.545 v 5.614 l -14.416,14.415 h -4.588 v 4.589 l -10.929,10.929 h -6.571 L 467.515,38.787 497.757,8.545 Z M -684.38,26.558 c 0.752,3.349 1.333,6.163 1.743,8.442 0.455,-2.279 1.105,-5.185 1.949,-8.716 0.708,-2.969 1.427,-5.839 2.152,-8.647 l 37.072,-37.072 -6.927,21.054 -49.856,49.856 h -2.573 l -2.834,-8.72 18.691,-18.691 c 0.192,0.835 0.395,1.654 0.583,2.494 m 131.011,-72.496 c 4.466,-1.686 8.875,-2.826 13.227,-3.417 0.757,-0.103 1.553,-0.185 2.345,-0.27 l -15.572,15.571 z m -45.527,15.108 c -2.917,0 -6.905,0.489 -11.963,1.47 -0.379,0.073 -0.756,0.157 -1.134,0.237 l 20.826,-20.826 c 4.483,0.411 8.333,1.271 11.551,2.576 l -16.648,16.648 c -0.798,-0.067 -1.669,-0.105 -2.632,-0.105 m 10.425,31.878 c -2.558,1.045 -4.629,1.907 -6.187,2.575 -2.234,0.957 -3.749,1.8 -4.546,2.529 -0.798,0.729 -1.196,1.573 -1.196,2.53 0,1.047 0.569,1.845 1.709,2.392 0.042,0.021 0.097,0.034 0.14,0.054 l -15.031,15.031 c -1.25,-0.591 -2.454,-1.229 -3.566,-1.96 -1.791,-1.175 -3.304,-2.528 -4.545,-4.055 l 54.987,-54.987 c 1.138,2.957 1.716,6.205 1.716,9.755 0,0.957 -0.039,1.871 -0.103,2.758 z m -37.291,-25.589 v -10.596 l 14.347,-14.347 c 4.079,-0.498 8.624,-0.76 13.681,-0.76 0.405,0 0.788,0.015 1.185,0.021 l -23.303,23.303 c -1.985,0.694 -3.955,1.484 -5.91,2.379 m -0.136,31.65 c 0,-0.916 0.039,-1.794 0.105,-2.649 l 23.041,-23.041 c 2.482,-1.033 4.538,-1.906 6.146,-2.61 2.392,-1.049 4.055,-1.972 4.99,-2.769 0.933,-0.798 1.401,-1.767 1.401,-2.905 0,-1.145 -0.523,-2.04 -1.564,-2.689 l 15.955,-15.955 c 3.131,1.846 5.544,4.141 7.245,6.882 l -55.308,55.308 c -1.336,-2.764 -2.011,-5.952 -2.011,-9.572 m 8.51,-18.252 c 1.272,-0.936 2.695,-1.838 4.252,-2.71 l -10.97,10.97 c 0.106,-0.249 0.21,-0.5 0.327,-0.74 1.412,-2.917 3.543,-5.424 6.391,-7.52 m -8.374,-34.795 c 2.5,-0.943 4.979,-1.697 7.443,-2.298 l -7.443,7.442 z m -102.15,14.036 16.975,-16.975 h 7.177 l 1.478,5.472 -22.166,22.165 z m 9.703,29.863 28.108,-28.107 h 14.126 l -38.769,38.769 z m 41.657,12.036 c 0.151,-0.583 0.288,-1.115 0.409,-1.589 l 4.307,-16.406 h -0.848 l 40.879,-40.879 h 0.028 l -6.914,21.012 z m 15.243,-58.874 h 4.065 l -5.513,5.513 z m -31.158,40.879 22.148,-22.148 h 4.089 l 1.457,-5.546 13.185,-13.185 h 14.126 l -40.879,40.879 z m -30.593,-8.973 21.981,-21.981 2.378,8.806 h 2.943 l -23.838,23.837 z m 178.065,5.828 c 2.848,-2.096 6.414,-4.033 10.698,-5.81 2.178,-0.894 4.11,-1.696 5.798,-2.406 l -24.975,24.976 c 0.149,-3.592 0.843,-6.673 2.087,-9.24 1.412,-2.917 3.543,-5.424 6.392,-7.52 m 133.608,-20.755 v 6.537 c -1.549,-0.726 -3.075,-1.358 -4.591,-1.946 z m -12.475,2.093 c -2.56,-0.607 -5.299,-0.999 -8.18,-1.221 l 15.725,-15.725 c 1.7,0.64 3.352,1.353 4.93,2.181 v 7.015 l -8.778,8.779 c -1.243,-0.386 -2.478,-0.739 -3.697,-1.029 m 32.641,-19.072 h 10.939 l -10.939,10.939 z m -47.97,78.692 c -1.211,0.075 -2.44,0.126 -3.709,0.126 -3.41,0 -6.621,-0.306 -9.656,-0.887 l 46.228,-46.228 v 11.705 c 0,0.845 -0.026,1.667 -0.06,2.481 z m -10.374,-57.159 c -2.803,2.598 -4.319,5.924 -4.546,9.981 h 2.75 l -26.432,26.432 c -1.352,-3.342 -2.288,-7.116 -2.81,-11.317 l 47.773,-47.773 c 3.483,0.219 6.558,0.598 9.207,1.144 1.034,0.213 2.046,0.461 3.044,0.732 l -16.916,16.915 c -5.298,0.054 -9.327,1.344 -12.07,3.886 m -43.58,50.723 c -4.831,2.142 -9.501,3.77 -14.013,4.888 -1.595,0.394 -3.24,0.694 -4.909,0.949 l 15.022,-15.023 z m 12.032,-34.043 c 0,-4.426 0.421,-8.454 1.246,-12.103 l 25.849,-25.849 c 4.229,-1.086 8.778,-1.628 13.647,-1.628 0.712,0 1.404,0.008 2.09,0.018 l -42.762,42.762 c -0.044,-1.046 -0.07,-2.109 -0.07,-3.2 m -38.794,-19.175 c -1.391,-0.661 -3.589,-0.991 -6.597,-0.991 -1.413,0 -3.082,0.117 -4.997,0.347 l 18.6,-18.6 c 2.416,0.514 4.6,1.193 6.529,2.052 1.305,0.581 2.504,1.228 3.616,1.93 l -16.019,16.019 c -0.306,-0.287 -0.678,-0.541 -1.132,-0.757 m -33.311,40.856 53.672,-53.672 c 1.471,1.348 2.704,2.845 3.667,4.51 0.75,1.297 1.361,2.665 1.854,4.096 L -548.8,20.726 c -2.362,-2.666 -3.837,-5.901 -4.418,-9.709 m 77.403,-44.171 c 3.169,-5.237 7.404,-9.232 12.685,-12.007 l -13.509,13.509 c 0.269,-0.507 0.531,-1.019 0.824,-1.502 m -19.234,19.912 -8.355,8.354 c -2.556,1.568 -5.581,3.061 -9.086,4.478 -4.284,1.731 -7.543,3.076 -9.776,4.033 -2.233,0.957 -3.749,1.8 -4.546,2.529 -0.797,0.729 -1.196,1.573 -1.196,2.53 0,1.047 0.57,1.845 1.709,2.392 1.139,0.547 2.757,0.821 4.854,0.821 0.41,0 0.854,-0.023 1.314,-0.055 l -16.172,16.172 c -3.15,-0.934 -5.982,-2.191 -8.453,-3.813 -0.377,-0.247 -0.741,-0.504 -1.094,-0.767 l 52.925,-52.924 c 0.21,1.415 0.327,2.879 0.327,4.404 0,4.557 -0.717,8.317 -2.153,11.279 -0.093,0.193 -0.199,0.378 -0.298,0.567 m -43.418,-16.118 c -5.058,0.979 -10.026,2.586 -14.902,4.819 v -3.856 l 21.69,-21.69 c 2.027,-0.096 4.122,-0.157 6.337,-0.157 2.703,0 5.212,0.136 7.555,0.391 l -20.45,20.45 c -0.078,0.015 -0.151,0.027 -0.23,0.043 m -119.625,60.464 -20.372,20.371 h -14.126 l 41.425,-41.425 z m 266.871,-63.385 16.596,-16.596 h 10.133 v 3.994 l -26.729,26.728 z M -688.789,8.408 c 0.592,2.188 1.287,4.922 2.085,8.203 0.23,0.946 0.444,1.916 0.67,2.868 l -19.007,19.007 -3.464,-10.662 19.653,-19.654 z m -1.239,-4.719 -19.865,19.865 -3.464,-10.662 20.392,-20.392 z m -122.081,42.95 -4.426,4.425 h -14.127 l 18.553,-18.552 z m 79.345,-93.473 2.044,-2.043 h 14.126 l -12.705,12.706 z m 167.227,70.213 c -0.025,0.011 -0.049,0.02 -0.073,0.031 l 0.06,-0.061 z m 53.457,-13.057 c 3.919,-1.049 7.793,-2.438 11.621,-4.17 l 1.728,4.071 -19.628,19.629 c -1.063,0.051 -2.133,0.089 -3.223,0.089 -3.661,0 -7.044,-0.281 -10.157,-0.836 l 18.479,-18.479 c 0.387,-0.097 0.776,-0.196 1.18,-0.304 m -300.029,16.534 -24.209,24.208 h -2.793 V 39.731 l 27.002,-27.002 z m 147.314,24.619 h -8.012 l 11.941,-11.942 z m 91.089,-57.73 c -1.366,0.963 -2.908,1.898 -4.613,2.807 l 11.775,-11.775 c -0.185,0.488 -0.381,0.964 -0.6,1.414 -1.435,2.962 -3.623,5.48 -6.562,7.554 m 6.47,25.633 -7.5,7.501 c -1.622,0.518 -3.232,0.996 -4.815,1.388 -3.881,0.96 -7.996,1.482 -12.316,1.616 l 20.421,-20.421 z m -17.237,-9.056 c 3.359,-0.899 6.683,-2.064 9.975,-3.464 l -22.994,22.994 c -4.469,-0.234 -8.48,-0.933 -12.045,-2.081 l 15.881,-15.881 c 2.305,-0.026 5.361,-0.546 9.183,-1.568 m -181.425,0.752 h 9.137 l -7.594,7.594 c -0.508,-2.609 -1.022,-5.159 -1.543,-7.594 m -26.195,-38.144 18.47,-18.471 v 14.127 l -4.344,4.344 z m 30.091,58.652 c -0.46,-2.726 -0.959,-5.439 -1.46,-8.151 l 12.357,-12.357 h 4.21 c 0.951,2.126 1.898,4.486 2.84,7.076 l -17.314,17.314 c -0.206,-1.284 -0.411,-2.569 -0.633,-3.882 m 2.803,19.346 c -0.32,-2.781 -0.718,-5.823 -1.197,-9.126 -0.068,-0.472 -0.146,-0.961 -0.217,-1.437 l 18.015,-18.014 c 0.106,0.319 0.212,0.634 0.318,0.96 1.066,3.278 2.064,6.549 3.03,9.817 l -17.799,17.8 z m -52.91,-43.856 -27.002,27.002 V 19.948 l 27.002,-27.002 z m 60.716,43.856 13.426,-13.426 c 1.203,4.26 2.196,7.972 2.981,11.146 l -2.28,2.28 z m -87.718,-99.805 h 3.819 l -3.819,3.82 z m 27.002,36.166 -27.002,27.002 V 0.165 l 27.002,-27.002 z m -27.002,-26.69 9.476,-9.476 h 14.126 l -23.602,23.603 z m 27.235,12.331 21.807,-21.807 h 14.126 l -21.807,21.807 z m -27.235,7.452 29.258,-29.259 h 14.127 l -43.385,43.385 z" /></g></g></g></g></svg>